<svg width="25" height="25" fill="none" xmlns="http://www.w3.org/2000/svg"><g clip-path="url(#prefix__clip0_311_80)"><path d="M3.817 5.48L0 1.666 1.665 0l3.816 3.817h17.937a1.177 1.177 0 011.128 1.514l-2.825 9.415a1.177 1.177 0 01-1.127.84H6.17v2.353h12.946v2.354H4.993a1.177 1.177 0 01-1.176-1.177V5.48zm2.353.69v7.061h13.548l2.119-7.06H6.17zM5.582 25a1.766 1.766 0 110-3.531 1.766 1.766 0 010 3.531zm14.122 0a1.765 1.765 0 110-3.53 1.765 1.765 0 010 3.53z" fill="#E0BEA2"/></g><defs><clipPath id="prefix__clip0_311_80"><path fill="#fff" d="M0 0h25v25H0z"/></clipPath></defs></svg>