<svg width="25" height="25" fill="none" xmlns="http://www.w3.org/2000/svg"><g clip-path="url(#prefix__clip0_311_74)"><path d="M2.5 25a9.524 9.524 0 0119.048 0h-2.381A7.143 7.143 0 004.88 25H2.5zm9.524-10.714A7.14 7.14 0 014.88 7.143 7.14 7.14 0 0112.024 0a7.14 7.14 0 017.143 7.143 7.14 7.14 0 01-7.143 7.143zm0-2.381a4.76 4.76 0 004.762-4.762 4.76 4.76 0 00-4.762-4.762 4.76 4.76 0 00-4.762 4.762 4.76 4.76 0 004.762 4.762z" fill="#E0BEA2"/></g><defs><clipPath id="prefix__clip0_311_74"><path fill="#fff" d="M0 0h25v25H0z"/></clipPath></defs></svg>