<svg width="48" height="48" viewBox="0 0 48 48" fill="none" xmlns="http://www.w3.org/2000/svg">
<path d="M24.7501 17.35C24.3168 17.35 23.9584 17.2083 23.6751 16.925C23.3918 16.6417 23.2501 16.2833 23.2501 15.85V11.2H18.5501C18.1168 11.2 17.7584 11.0583 17.4751 10.775C17.1918 10.4917 17.0501 10.1333 17.0501 9.69999C17.0501 9.26665 17.1918 8.90832 17.4751 8.62499C17.7584 8.34165 18.1168 8.19999 18.5501 8.19999H23.2501V3.54999C23.2501 3.11665 23.3918 2.75832 23.6751 2.47499C23.9584 2.19165 24.3168 2.04999 24.7501 2.04999C25.1834 2.04999 25.5418 2.19165 25.8251 2.47499C26.1084 2.75832 26.2501 3.11665 26.2501 3.54999V8.19999H30.9001C31.3334 8.19999 31.6918 8.34165 31.9751 8.62499C32.2584 8.90832 32.4001 9.26665 32.4001 9.69999C32.4001 10.1333 32.2584 10.4917 31.9751 10.775C31.6918 11.0583 31.3334 11.2 30.9001 11.2H26.2501V15.85C26.2501 16.2833 26.1084 16.6417 25.8251 16.925C25.5418 17.2083 25.1834 17.35 24.7501 17.35ZM14.5001 44C13.5001 44 12.6501 43.65 11.9501 42.95C11.2501 42.25 10.9001 41.4 10.9001 40.4C10.9001 39.4 11.2501 38.55 11.9501 37.85C12.6501 37.15 13.5001 36.8 14.5001 36.8C15.5001 36.8 16.3501 37.15 17.0501 37.85C17.7501 38.55 18.1001 39.4 18.1001 40.4C18.1001 41.4 17.7501 42.25 17.0501 42.95C16.3501 43.65 15.5001 44 14.5001 44ZM34.7001 44C33.7001 44 32.8501 43.65 32.1501 42.95C31.4501 42.25 31.1001 41.4 31.1001 40.4C31.1001 39.4 31.4501 38.55 32.1501 37.85C32.8501 37.15 33.7001 36.8 34.7001 36.8C35.7001 36.8 36.5501 37.15 37.2501 37.85C37.9501 38.55 38.3001 39.4 38.3001 40.4C38.3001 41.4 37.9501 42.25 37.2501 42.95C36.5501 43.65 35.7001 44 34.7001 44ZM14.5001 33.65C13.1668 33.65 12.1584 33.0833 11.4751 31.95C10.7918 30.8167 10.7834 29.6667 11.4501 28.5L14.5001 22.95L7.0001 6.99999H4.6001C4.16676 6.99999 3.80843 6.85832 3.5251 6.57499C3.24176 6.29165 3.1001 5.93332 3.1001 5.49999C3.1001 5.06665 3.24176 4.70832 3.5251 4.42499C3.80843 4.14165 4.16676 3.99999 4.6001 3.99999H7.9501C8.2501 3.99999 8.51676 4.07499 8.7501 4.22499C8.98343 4.37499 9.16676 4.58332 9.3001 4.84999L17.4001 22.2H32.0001L39.4001 8.94999C39.5334 8.71665 39.7084 8.53332 39.9251 8.39999C40.1418 8.26665 40.3834 8.19999 40.6501 8.19999C41.2168 8.19999 41.6418 8.44165 41.9251 8.92499C42.2084 9.40832 42.2168 9.89999 41.9501 10.4L34.7501 23.45C34.4501 24.0167 34.0418 24.45 33.5251 24.75C33.0084 25.05 32.4001 25.2 31.7001 25.2H16.7001L13.6001 30.65H36.8001C37.2334 30.65 37.5918 30.7917 37.8751 31.075C38.1584 31.3583 38.3001 31.7167 38.3001 32.15C38.3001 32.5833 38.1584 32.9417 37.8751 33.225C37.5918 33.5083 37.2334 33.65 36.8001 33.65H14.5001Z" fill="white"/>
</svg>
