<svg width="19" height="19" fill="none" xmlns="http://www.w3.org/2000/svg"><path d="M9.5 7.125a2.375 2.375 0 100 4.75 2.375 2.375 0 000-4.75zm0-1.583a3.958 3.958 0 110 7.916 3.958 3.958 0 010-7.916zm5.146-.198a.99.99 0 11-1.98 0 .99.99 0 011.98 0zM9.5 3.167c-1.959 0-2.279.005-3.19.046-.62.029-1.037.112-1.423.262a2.285 2.285 0 00-.855.557c-.248.24-.438.532-.557.855-.15.388-.234.803-.263 1.423-.04.874-.045 1.18-.045 3.19 0 1.959.005 2.278.046 3.19.029.62.112 1.037.262 1.422.134.345.292.592.555.855.267.266.515.425.855.557.391.151.808.235 1.425.263.874.042 1.18.046 3.19.046 1.959 0 2.278-.005 3.19-.046.619-.029 1.036-.112 1.422-.262.343-.133.592-.293.855-.555.267-.267.426-.515.557-.855.15-.39.235-.808.263-1.425.041-.874.046-1.18.046-3.19 0-1.959-.005-2.278-.046-3.19-.029-.619-.112-1.037-.263-1.423a2.305 2.305 0 00-.556-.855 2.283 2.283 0 00-.855-.557c-.388-.15-.804-.234-1.423-.262-.874-.042-1.18-.046-3.19-.046zm0-1.584c2.15 0 2.42.008 3.263.048s1.417.172 1.922.368a3.86 3.86 0 011.403.913c.403.395.714.874.913 1.403.195.504.328 1.079.368 1.922.037.844.048 1.112.048 3.263 0 2.15-.008 2.42-.048 3.263s-.172 1.417-.368 1.922a3.866 3.866 0 01-.913 1.403 3.89 3.89 0 01-1.403.913c-.504.196-1.079.329-1.922.368-.844.037-1.112.048-3.263.048s-2.42-.008-3.263-.048-1.417-.172-1.923-.368a3.871 3.871 0 01-1.402-.913 3.882 3.882 0 01-.913-1.403c-.196-.504-.329-1.079-.368-1.922-.037-.844-.048-1.112-.048-3.263s.008-2.42.048-3.263c.04-.844.172-1.417.368-1.922.198-.53.51-1.008.913-1.403a3.877 3.877 0 011.402-.913c.506-.196 1.079-.329 1.923-.368.844-.037 1.112-.048 3.263-.048z" fill="#E0BEA2"/></svg>