<svg width="19" height="19" viewBox="0 0 19 19" fill="none" xmlns="http://www.w3.org/2000/svg">
<path d="M9.49992 7.12498C8.87003 7.12498 8.26594 7.3752 7.82054 7.8206C7.37514 8.266 7.12492 8.87009 7.12492 9.49998C7.12492 10.1299 7.37514 10.734 7.82054 11.1794C8.26594 11.6248 8.87003 11.875 9.49992 11.875C10.1298 11.875 10.7339 11.6248 11.1793 11.1794C11.6247 10.734 11.8749 10.1299 11.8749 9.49998C11.8749 8.87009 11.6247 8.266 11.1793 7.8206C10.7339 7.3752 10.1298 7.12498 9.49992 7.12498ZM9.49992 5.54165C10.5497 5.54165 11.5566 5.95868 12.2989 6.70102C13.0412 7.44335 13.4583 8.45017 13.4583 9.49998C13.4583 10.5498 13.0412 11.5566 12.2989 12.2989C11.5566 13.0413 10.5497 13.4583 9.49992 13.4583C8.4501 13.4583 7.44329 13.0413 6.70095 12.2989C5.95862 11.5566 5.54159 10.5498 5.54159 9.49998C5.54159 8.45017 5.95862 7.44335 6.70095 6.70102C7.44329 5.95868 8.4501 5.54165 9.49992 5.54165ZM14.6458 5.34373C14.6458 5.60618 14.5415 5.85789 14.3559 6.04347C14.1703 6.22905 13.9186 6.33331 13.6562 6.33331C13.3937 6.33331 13.142 6.22905 12.9564 6.04347C12.7708 5.85789 12.6666 5.60618 12.6666 5.34373C12.6666 5.08128 12.7708 4.82957 12.9564 4.64399C13.142 4.45841 13.3937 4.35415 13.6562 4.35415C13.9186 4.35415 14.1703 4.45841 14.3559 4.64399C14.5415 4.82957 14.6458 5.08128 14.6458 5.34373ZM9.49992 3.16665C7.54134 3.16665 7.2215 3.17219 6.31029 3.21256C5.68963 3.24185 5.27321 3.32498 4.88688 3.4754C4.54329 3.6084 4.2955 3.76752 4.03188 4.03194C3.78409 4.27134 3.59357 4.56361 3.47454 4.88694C3.32413 5.27485 3.241 5.69048 3.2125 6.31036C3.17134 7.18436 3.16659 7.48994 3.16659 9.49998C3.16659 11.4586 3.17213 11.7784 3.2125 12.6896C3.24179 13.3095 3.32492 13.7267 3.47454 14.1122C3.60913 14.4566 3.76746 14.7044 4.03029 14.9672C4.29709 15.2332 4.54488 15.3924 4.88529 15.5238C5.27638 15.675 5.69279 15.7589 6.31029 15.7874C7.18429 15.8286 7.48988 15.8333 9.49992 15.8333C11.4585 15.8333 11.7783 15.8278 12.6895 15.7874C13.3086 15.7581 13.7258 15.675 14.1122 15.5254C14.455 15.3916 14.7043 15.2324 14.9672 14.9696C15.234 14.7028 15.3931 14.455 15.5245 14.1146C15.6749 13.7243 15.7588 13.3071 15.7873 12.6896C15.8285 11.8156 15.8333 11.51 15.8333 9.49998C15.8333 7.5414 15.8277 7.22156 15.7873 6.31036C15.758 5.69127 15.6749 5.27327 15.5245 4.88694C15.4052 4.56394 15.215 4.27178 14.968 4.03194C14.7287 3.78402 14.4364 3.59349 14.113 3.4746C13.725 3.32419 13.3086 3.24106 12.6895 3.21256C11.8155 3.1714 11.51 3.16665 9.49992 3.16665ZM9.49992 1.58331C11.6509 1.58331 11.9193 1.59123 12.7632 1.63081C13.6063 1.6704 14.1803 1.8026 14.6853 1.99894C15.2078 2.20002 15.648 2.47235 16.0882 2.91173C16.4907 3.30748 16.8022 3.7862 17.001 4.31456C17.1965 4.81885 17.3295 5.3936 17.3691 6.23673C17.4063 7.08065 17.4166 7.34902 17.4166 9.49998C17.4166 11.6509 17.4087 11.9193 17.3691 12.7632C17.3295 13.6064 17.1965 14.1803 17.001 14.6854C16.8028 15.2141 16.4912 15.6929 16.0882 16.0882C15.6923 16.4907 15.2136 16.8021 14.6853 17.001C14.181 17.1966 13.6063 17.3296 12.7632 17.3691C11.9193 17.4064 11.6509 17.4166 9.49992 17.4166C7.34896 17.4166 7.08059 17.4087 6.23667 17.3691C5.39354 17.3296 4.81959 17.1966 4.3145 17.001C3.78593 16.8027 3.30713 16.4911 2.91167 16.0882C2.50903 15.6925 2.19753 15.2138 1.99888 14.6854C1.80254 14.1811 1.67034 13.6064 1.63075 12.7632C1.59354 11.9193 1.58325 11.6509 1.58325 9.49998C1.58325 7.34902 1.59117 7.08065 1.63075 6.23673C1.67034 5.39281 1.80254 4.81965 1.99888 4.31456C2.19698 3.78587 2.50855 3.30703 2.91167 2.91173C3.30724 2.50895 3.78601 2.19743 4.3145 1.99894C4.81959 1.8026 5.39275 1.6704 6.23667 1.63081C7.08059 1.5936 7.34896 1.58331 9.49992 1.58331Z" fill="#E0BEA2"/>
</svg>
