<svg width="20" height="20" fill="none" xmlns="http://www.w3.org/2000/svg"><g clip-path="url(#prefix__clip0_371_58)"><path d="M3.053 4.385L0 1.332 1.332 0l3.052 3.053h14.35a.941.941 0 01.903 1.212l-2.26 7.532a.941.941 0 01-.902.671H4.936v1.883h10.357v1.883H3.995a.941.941 0 01-.942-.941V4.384zm1.883.551v5.65h10.839l1.694-5.65H4.936zM4.466 20a1.412 1.412 0 110-2.825 1.412 1.412 0 010 2.825zm11.297 0a1.413 1.413 0 110-2.825 1.413 1.413 0 010 2.825z" fill="#fff"/></g><defs><clipPath id="prefix__clip0_371_58"><path fill="#fff" d="M0 0h20v20H0z"/></clipPath></defs></svg>