<svg width="20" height="20" viewBox="0 0 20 20" fill="none" xmlns="http://www.w3.org/2000/svg">
<g clip-path="url(#clip0_443_128)">
<path d="M2 20C2 17.9793 2.80272 16.0414 4.23157 14.6125C5.66042 13.1837 7.59835 12.381 9.61905 12.381C11.6397 12.381 13.5777 13.1837 15.0065 14.6125C16.4354 16.0414 17.2381 17.9793 17.2381 20H15.3333C15.3333 18.4845 14.7313 17.031 13.6597 15.9594C12.588 14.8878 11.1346 14.2857 9.61905 14.2857C8.10352 14.2857 6.65007 14.8878 5.57844 15.9594C4.5068 17.031 3.90476 18.4845 3.90476 20H2ZM9.61905 11.4286C6.4619 11.4286 3.90476 8.87143 3.90476 5.71429C3.90476 2.55714 6.4619 0 9.61905 0C12.7762 0 15.3333 2.55714 15.3333 5.71429C15.3333 8.87143 12.7762 11.4286 9.61905 11.4286ZM9.61905 9.52381C11.7238 9.52381 13.4286 7.81905 13.4286 5.71429C13.4286 3.60952 11.7238 1.90476 9.61905 1.90476C7.51428 1.90476 5.80952 3.60952 5.80952 5.71429C5.80952 7.81905 7.51428 9.52381 9.61905 9.52381Z" fill="#E0BEA2"/>
</g>
<defs>
<clipPath id="clip0_443_128">
<rect width="20" height="20" fill="white"/>
</clipPath>
</defs>
</svg>
